<?xml version="1.0" standalone="no"?>
<!DOCTYPE svg PUBLIC "-//W3C//DTD SVG 20010904//EN"
 "http://www.w3.org/TR/2001/REC-SVG-20010904/DTD/svg10.dtd">
<svg version="1.0" xmlns="http://www.w3.org/2000/svg"
 width="133.000000pt" height="136.000000pt" viewBox="0 0 133.000000 136.000000"
 preserveAspectRatio="xMidYMid meet">

<g transform="translate(0.000000,136.000000) scale(0.100000,-0.100000)"
fill="#000000" stroke="none">
<path d="M186 1171 c-192 -192 -212 -221 -151 -221 l25 0 0 -195 0 -195 30 0
30 0 0 195 0 195 45 0 45 0 0 -99 c0 -81 3 -100 16 -105 9 -3 111 -6 228 -6
l213 0 119 135 c65 74 120 145 122 156 2 12 -17 51 -47 96 l-51 75 51 58 c84
97 89 95 -221 98 l-265 2 -189 -189z m604 102 c-12 -16 -74 -83 -137 -150
l-115 -123 -214 0 c-118 0 -214 4 -214 8 0 4 64 72 143 150 l144 142 207 0
207 0 -21 -27z m7 -297 c-29 -34 -75 -87 -102 -118 l-49 -58 -193 0 -193 0 0
53 c0 103 -9 97 160 97 l149 0 102 105 102 105 38 -62 38 -62 -52 -60z"/>
<path d="M971 1008 l-8 -23 151 -6 c83 -3 152 -7 154 -7 1 -1 2 -135 2 -297
l0 -295 -502 2 -502 3 -1 30 c-1 17 -2 83 -3 148 l-2 117 -25 0 -25 0 0 -240
0 -241 25 -24 c24 -25 25 -25 220 -25 188 0 195 -1 195 -20 0 -26 -32 -58 -67
-66 -43 -10 -54 -23 -42 -45 9 -18 22 -19 232 -17 220 3 222 3 225 25 3 18 -4
24 -37 33 -41 11 -71 41 -71 72 0 17 15 18 195 18 195 0 196 0 220 25 l25 24
0 389 c0 379 -1 390 -21 416 l-20 26 -155 0 c-151 0 -155 0 -163 -22z m299
-738 c0 -33 -1 -60 -2 -61 -27 -5 -840 -9 -905 -4 l-92 7 -7 34 c-3 19 -3 45
0 59 l6 25 500 0 500 0 0 -60z m-440 -135 c0 -9 7 -29 15 -45 l16 -30 -90 0
-89 0 17 45 16 45 57 0 c46 0 58 -3 58 -15z"/>
<path d="M744 275 c-8 -19 3 -35 26 -35 19 0 34 25 24 41 -8 14 -44 10 -50 -6z"/>
<path d="M52 488 c-19 -19 -14 -80 11 -121 22 -36 24 -37 39 -20 35 39 50 117
26 141 -7 7 -24 12 -38 12 -14 0 -31 -5 -38 -12z"/>
</g>
</svg>
